<svg width="16" height="17" viewBox="0 0 16 17" fill="none" xmlns="http://www.w3.org/2000/svg">
<path d="M13.8644 13.1578C13.8188 13.1331 13.7753 13.1097 13.7394 13.0891C13.5372 12.9694 13.3331 12.7603 13.3691 12.5319C13.4447 12.0337 13.4594 11.7984 13.3538 11.6322C13.2969 11.5434 13.2128 11.4754 13.1141 11.4384V11.4366C13.1581 11.3566 13.1847 11.2597 13.2025 11.1203C13.2475 10.7766 13.0463 9.74531 12.7744 8.91094C12.5219 8.13969 11.8606 7.34844 11.3775 6.76844L11.2647 6.63281C10.5184 5.72875 10.5041 5.43937 10.435 4.04938C10.425 3.84719 10.4134 3.61812 10.3984 3.36188C10.3084 1.79469 9.5 1 8 1C7.2125 1 6.60563 1.22344 6.19625 1.66437C5.86844 2.01719 5.6875 2.5 5.6875 3.02437C5.6875 3.94688 5.75 4.68063 5.75469 4.72094C5.79844 5.83656 5.78594 6.00906 5.495 6.51937C5.42531 6.64219 5.23313 6.85906 5.02969 7.08844C4.76469 7.3875 4.46438 7.72625 4.29969 8.00156C4.18188 8.19875 4.11594 8.39625 4.04625 8.60563C3.94 8.92469 3.81938 9.28625 3.47906 9.74844C3.08625 10.2819 2.99406 10.6737 3.13531 11.2312C2.98094 11.4328 2.98438 11.6803 2.98688 11.8634C2.99128 11.927 2.98814 11.9909 2.9775 12.0538C2.90594 12.2909 2.58938 12.3475 2.29 12.3719C2.24063 12.3756 2.19313 12.3784 2.14781 12.3809C1.92094 12.3931 1.725 12.4041 1.6125 12.5778C1.50406 12.7453 1.5775 13.0091 1.67938 13.3741C1.70188 13.4547 1.725 13.5381 1.74781 13.6259C1.805 13.8447 1.74281 13.9534 1.66406 14.0897C1.58781 14.2212 1.50125 14.3709 1.50125 14.6381C1.50125 15.0966 2.12625 15.2006 2.84656 15.3237C3.07656 15.3625 3.31531 15.4028 3.55375 15.4563C3.91701 15.5392 4.27313 15.6508 4.61875 15.79C4.9225 15.9066 5.1625 15.9987 5.44469 15.9987C5.95031 15.9987 6.3275 15.6934 6.69219 15.3984L6.75938 15.3438C6.93219 15.2034 7.43125 15.2188 7.8325 15.23C7.94063 15.2331 8.04281 15.2362 8.13406 15.2362H8.32844C8.74969 15.2338 9.32656 15.2306 9.64813 15.3144C9.76531 15.3456 9.84188 15.4306 9.93844 15.5391C10.1219 15.7441 10.35 16 10.9819 16C11.5878 16 11.9053 15.7278 12.2731 15.4125C12.4969 15.2209 12.7281 15.0225 13.0566 14.8544C13.1791 14.7919 13.2947 14.7334 13.4028 14.6791C14.1103 14.3234 14.5 14.1275 14.5 13.8097C14.5 13.5 14.1175 13.2941 13.8644 13.1578ZM6.59719 3.26187C6.6826 3.26525 6.76512 3.29373 6.83443 3.34375C6.90375 3.39377 6.95677 3.46312 6.98688 3.54312C7.04781 3.71656 7.04344 3.86875 6.99344 3.9475C6.99344 3.9475 6.98656 3.91625 6.98219 3.9025C6.95093 3.79105 6.87915 3.69531 6.78094 3.63406C6.74002 3.60763 6.6941 3.58991 6.64603 3.58201C6.59797 3.57411 6.54879 3.57619 6.50156 3.58812C6.36844 3.62344 6.23875 3.74437 6.22313 4.17531C6.06188 3.84812 6.15094 3.61281 6.25188 3.45656C6.32406 3.34 6.48531 3.25875 6.59719 3.26187ZM6.05031 14.9806C6 15.4762 5.475 15.4688 5.31531 15.4559C5.00875 15.4303 4.63844 15.3094 4.28 15.1925C4.13875 15.1466 3.99281 15.0988 3.85094 15.0569C3.43844 14.9353 2.90969 14.8463 2.48469 14.7756C2.38406 14.7584 2.28875 14.7425 2.20188 14.7272C2.115 14.7119 2.05781 14.6875 2.03938 14.6553C2.00813 14.6038 2.05125 14.4913 2.09969 14.3612C2.16469 14.1875 2.25344 13.9481 2.25 13.6562C2.25 13.5341 2.20406 13.3969 2.16125 13.2638C2.11063 13.1075 2.05875 12.9459 2.10094 12.8694C2.13938 12.7997 2.31188 12.7916 2.46344 12.7916H2.53406C2.645 12.7916 2.74094 12.7934 2.8075 12.775C3.01094 12.7184 3.27188 12.5588 3.36406 12.3413C3.39219 12.2734 3.40688 12.1244 3.42656 11.9038C3.43813 11.775 3.44969 11.6422 3.46469 11.5731C3.46838 11.5555 3.47631 11.539 3.4878 11.5251C3.49929 11.5112 3.51399 11.5004 3.53063 11.4934C3.58219 11.4694 3.7425 11.4338 4.11281 11.6209C4.46219 11.7975 4.82781 12.4284 5.18156 13.0387C5.29281 13.2306 5.39781 13.4119 5.50344 13.5813C5.94219 14.2856 6.09188 14.5687 6.05031 14.9812V14.9806ZM10.0766 13.9944C10.039 14.1118 9.99142 14.2257 9.93438 14.335C9.93249 14.3393 9.92903 14.3426 9.92472 14.3444C9.92041 14.3462 9.91558 14.3463 9.91123 14.3446C9.90688 14.3429 9.90336 14.3396 9.90138 14.3353C9.89941 14.3311 9.89914 14.3263 9.90063 14.3219C9.95413 14.1348 9.97641 13.9402 9.96656 13.7459C9.95875 13.5981 9.95406 13.5087 9.88344 13.48C9.81281 13.4512 9.75031 13.5059 9.58813 13.6531C9.55375 13.6844 9.51438 13.72 9.47 13.7594C9.1325 14.0553 8.63 14.4056 7.73219 14.4897C7.20594 14.5394 6.87 14.345 6.76594 14.2353C6.75983 14.2288 6.75249 14.2236 6.74435 14.2199C6.7362 14.2163 6.72741 14.2143 6.71849 14.214C6.70957 14.2138 6.70069 14.2153 6.69237 14.2186C6.68404 14.2218 6.67644 14.2266 6.67 14.2328C6.66096 14.2421 6.65468 14.2537 6.65186 14.2663C6.64905 14.279 6.64981 14.2921 6.65406 14.3044C6.72031 14.5181 6.69156 14.6875 6.63875 14.8103C6.60906 14.8791 6.58094 14.8744 6.57625 14.7997C6.56844 14.6547 6.545 14.4909 6.4825 14.3562C6.38531 14.1394 6.26375 13.9081 6.20469 13.7975V13.7959C6.30594 13.7494 6.48156 13.645 6.56 13.4559C6.63844 13.2669 6.7 12.8934 6.25313 12.4641C6.05688 12.275 5.5625 11.9278 5.12625 11.6203C4.78563 11.3813 4.43344 11.1341 4.38719 11.0731C4.24688 10.8891 4.18813 10.7825 4.17031 10.4591C4.1725 10.3872 4.17438 10.3156 4.17625 10.2437L4.18469 10.1659C4.18526 10.1616 4.1874 10.1576 4.19071 10.1547C4.19402 10.1518 4.19826 10.1502 4.20266 10.1502C4.20705 10.1502 4.2113 10.1518 4.2146 10.1547C4.21791 10.1576 4.22005 10.1616 4.22063 10.1659C4.23344 10.2687 4.25434 10.3702 4.28313 10.4697C4.31688 10.5863 4.35813 10.7066 4.39625 10.7566C4.49594 10.8884 4.6325 10.9875 4.76094 11.0219C4.78688 11.0309 4.81462 11.0336 4.84181 11.0297C4.86901 11.0258 4.89486 11.0154 4.91719 10.9994C5.00875 10.9266 5 10.7619 4.98563 10.4888C4.97094 10.2075 4.95094 9.82187 5.04344 9.40906C5.21906 8.62781 5.38438 8.39313 5.59375 8.09656C5.62063 8.05844 5.64844 8.01938 5.67656 7.97813C5.72156 7.91313 5.77031 7.85 5.8225 7.78344C6.05594 7.48313 6.32031 7.14312 6.2575 6.50375C6.24156 6.34156 6.23375 6.22781 6.23063 6.14781C6.22966 6.14052 6.2313 6.13311 6.23525 6.12691C6.23921 6.1207 6.24523 6.11609 6.25225 6.11389C6.25927 6.11168 6.26684 6.11203 6.27364 6.11486C6.28043 6.1177 6.286 6.12284 6.28938 6.12937L6.30469 6.15344L6.3425 6.21594C6.49438 6.46594 6.76875 6.92125 7.12688 6.92125C7.1516 6.92121 7.17628 6.91902 7.20063 6.91469C7.93156 6.79188 8.8225 5.96937 8.83094 5.96125C8.92844 5.8675 8.91969 5.76938 8.88219 5.71406C8.86032 5.68278 8.8281 5.66023 8.79122 5.65039C8.75434 5.64055 8.71517 5.64407 8.68063 5.66031C8.57781 5.70406 8.4575 5.75875 8.33 5.81656C7.89813 6.0125 7.17375 6.34 7.00969 6.26469C6.93488 6.22336 6.86801 6.16908 6.81219 6.10437C6.8088 6.10204 6.80591 6.09905 6.80368 6.0956C6.80145 6.09214 6.79992 6.08828 6.79918 6.08423C6.79844 6.08018 6.7985 6.07603 6.79937 6.072C6.80023 6.06798 6.80188 6.06417 6.80422 6.06078C6.80656 6.0574 6.80954 6.0545 6.813 6.05227C6.81646 6.05004 6.82032 6.04851 6.82437 6.04777C6.82841 6.04703 6.83257 6.04709 6.83659 6.04796C6.84061 6.04882 6.84443 6.05047 6.84781 6.05281C7.0225 6.12437 7.14625 6.09812 7.29156 6.05031L7.32281 6.03969C7.61563 5.94313 7.76656 5.89062 8.28406 5.66219C8.44762 5.58549 8.61766 5.52348 8.79219 5.47687C8.91719 5.44562 8.99281 5.42594 9.03313 5.34125C9.052 5.30648 9.06056 5.26704 9.05779 5.22757C9.05502 5.1881 9.04105 5.15024 9.0175 5.11844C8.96969 5.06 8.89031 5.03813 8.79875 5.05906C8.69813 5.0825 8.65188 5.15281 8.59844 5.19938C8.52344 5.26344 8.44219 5.32937 8.06125 5.46969C7.2175 5.78219 6.98063 5.80125 6.64844 5.57688C6.34094 5.36781 6.175 5.16344 6.175 5.07688C6.175 5.01031 6.34531 4.89875 6.44719 4.83187C6.48875 4.80469 6.52813 4.77906 6.56031 4.755C6.69594 4.65438 6.96656 4.39906 6.97844 4.38844C7.14719 4.21938 7.53813 4.32031 7.75969 4.46906C7.7673 4.47475 7.776 4.47882 7.78524 4.48102C7.79448 4.48323 7.80408 4.48352 7.81344 4.48187C7.82225 4.48017 7.83064 4.47671 7.83809 4.4717C7.84554 4.46669 7.8519 4.46023 7.8568 4.4527C7.8617 4.44518 7.86503 4.43675 7.8666 4.42791C7.86817 4.41907 7.86795 4.41 7.86594 4.40125C7.73469 3.85562 7.86188 3.54688 7.99094 3.38406C8.05653 3.30202 8.1396 3.23565 8.23411 3.18981C8.32861 3.14396 8.43215 3.11979 8.53719 3.11906C8.9375 3.11906 9.21719 3.43156 9.21719 3.88219C9.21719 4.22594 9.12906 4.40687 9.04594 4.51656C9.04128 4.52261 9.03539 4.5276 9.02866 4.5312C9.02192 4.53481 9.01451 4.53695 9.00689 4.53748C8.99927 4.53801 8.99163 4.53692 8.98446 4.53429C8.9773 4.53165 8.97077 4.52753 8.96531 4.52219C8.95649 4.51326 8.95094 4.5016 8.94958 4.48912C8.94822 4.47664 8.95112 4.46406 8.95781 4.45344C9.027 4.33481 9.06315 4.19982 9.0625 4.0625C9.06288 3.99353 9.04949 3.92518 9.02312 3.86146C8.99674 3.79774 8.9579 3.73992 8.90889 3.6914C8.85988 3.64288 8.80167 3.60464 8.73768 3.57891C8.67369 3.55318 8.60521 3.54048 8.53625 3.54156C8.41313 3.54156 8.115 3.58844 8.01219 4.02406C7.98706 4.1377 7.98346 4.25504 8.00156 4.37L8.00406 4.39219C8.03219 4.62281 8.48219 4.78312 8.855 4.87687C9.21 4.96594 9.26125 5.07125 9.13125 5.49031C9.00125 5.90938 9.22844 6.31 9.30938 6.41437C9.4082 6.53567 9.49516 6.66616 9.56906 6.80406C9.65412 6.96882 9.72339 7.14125 9.77594 7.31906C9.84375 7.53125 9.9025 7.71437 10.1081 7.98219C10.4541 8.43219 10.66 9.50219 10.5769 10.4197C10.5703 10.495 10.5603 10.5538 10.5528 10.5969C10.5394 10.6759 10.5303 10.7281 10.5734 10.765C10.6166 10.8019 10.6722 10.7869 10.8003 10.7453L10.9075 10.7113C11.0367 10.6744 11.168 10.6451 11.3006 10.6237C11.3112 10.6221 11.3212 10.6179 11.3299 10.6116C11.3385 10.6053 11.3455 10.5971 11.3503 10.5875C11.4575 10.3716 11.4706 10.1119 11.4753 9.88531C11.4753 9.85802 11.4759 9.82896 11.4772 9.79813C11.4831 9.55531 11.4913 9.20656 11.385 8.79813C11.3823 8.79013 11.383 8.7814 11.3868 8.77387C11.3905 8.76634 11.3972 8.76062 11.4052 8.75797C11.4132 8.75532 11.4219 8.75595 11.4294 8.75973C11.4369 8.76351 11.4427 8.77013 11.4453 8.77812C11.5523 9.03302 11.6224 9.30187 11.6534 9.57656C11.7331 10.2822 11.5941 10.5794 11.5928 10.5819C11.5896 10.5884 11.5878 10.5955 11.5876 10.6027C11.5874 10.61 11.5887 10.6172 11.5915 10.6238C11.5943 10.6305 11.5986 10.6365 11.6039 10.6414C11.6093 10.6463 11.6156 10.65 11.6225 10.6522C11.7059 10.6821 11.7805 10.7322 11.8397 10.7981C11.8853 10.85 11.8688 10.8731 11.8041 10.8488C11.6764 10.8011 11.5412 10.7769 11.405 10.7772C11.08 10.7772 10.8397 10.9319 10.7328 11.0644C10.6331 11.1875 10.6172 11.3041 10.6131 11.4166L10.6113 11.4181C10.3775 11.3947 10.2069 11.4559 10.0653 11.6122L10.0628 11.615C9.86719 11.8572 9.93781 12.3847 10.0225 12.8175C10.0625 13.0191 10.1972 13.615 10.0766 13.995V13.9944ZM13.0797 14.3091C12.5888 14.5188 12.285 14.7625 12.0172 14.9775C11.8406 15.1191 11.6734 15.2528 11.4772 15.3569C11.1609 15.5238 10.6988 15.5609 10.4375 15.1163C10.3634 14.9913 10.4153 14.8081 10.4869 14.5553C10.5822 14.2194 10.7128 13.7597 10.6028 13.16C10.5734 13 10.5475 12.8628 10.525 12.7441C10.4375 12.2812 10.4031 12.1072 10.4375 11.9688C10.4572 11.8922 10.5447 11.875 10.6209 11.875C10.6484 11.8753 10.6759 11.8772 10.7031 11.8809C10.7447 12.0227 10.8197 12.1524 10.9219 12.2591C11.1 12.4422 11.3478 12.535 11.6581 12.5356C11.7238 12.5409 12.4688 12.5841 12.8 11.8356C12.8456 11.8412 12.9141 11.8575 12.9344 11.9075C12.9744 12.0072 12.9259 12.1859 12.8869 12.3294C12.8588 12.4328 12.8344 12.5219 12.8359 12.5909C12.8456 13.0909 13.1797 13.3028 13.6431 13.5959C13.6991 13.6313 13.7575 13.6681 13.8166 13.7066C13.8756 13.745 13.9063 13.7812 13.9063 13.8125C13.89 13.9622 13.2813 14.2238 13.0797 14.3097V14.3091Z" fill="#3076F8"/>
</svg>
