<svg width="21" height="16" viewBox="0 0 21 16" fill="none" xmlns="http://www.w3.org/2000/svg">
<g clip-path="url(#clip0_34_30)">
<path d="M3.74192 15.9205V14.8615C3.74192 14.4555 3.49477 14.1908 3.07113 14.1908C2.85935 14.1908 2.62988 14.2614 2.47101 14.4908C2.34751 14.2967 2.17103 14.1908 1.90627 14.1908C1.7297 14.1908 1.5533 14.2437 1.41204 14.4379V14.2261H1.04138V15.9205H1.41204V14.985C1.41204 14.685 1.57091 14.5438 1.81807 14.5438C2.06506 14.5438 2.18872 14.7026 2.18872 14.985V15.9205H2.55937V14.985C2.55937 14.685 2.73577 14.5438 2.96524 14.5438C3.2124 14.5438 3.33589 14.7026 3.33589 14.985V15.9205H3.74192ZM9.23105 14.2261H8.63101V13.7142H8.26036V14.2261H7.925V14.5614H8.26028V15.338C8.26028 15.7264 8.41915 15.9558 8.84279 15.9558C9.00166 15.9558 9.17807 15.9029 9.30172 15.8323L9.19575 15.5145C9.08986 15.5851 8.96637 15.6028 8.87808 15.6028C8.7016 15.6028 8.63101 15.4969 8.63101 15.3204V14.5614H9.23105V14.2261ZM12.3728 14.1907C12.1611 14.1907 12.0199 14.2967 11.9316 14.4379V14.2261H11.5609V15.9205H11.9316V14.9674C11.9316 14.685 12.0551 14.5261 12.2846 14.5261C12.3552 14.5261 12.4434 14.5438 12.514 14.5614L12.6199 14.2085C12.5493 14.1908 12.4434 14.1908 12.3728 14.1908M7.62494 14.3674C7.44838 14.2438 7.2013 14.1909 6.93654 14.1909C6.51298 14.1909 6.23061 14.4026 6.23061 14.738C6.23061 15.0205 6.44239 15.1793 6.81304 15.2322L6.98952 15.2499C7.18369 15.2851 7.28958 15.3381 7.28958 15.4264C7.28958 15.5499 7.1484 15.6382 6.90124 15.6382C6.65409 15.6382 6.45999 15.5499 6.33642 15.4617L6.15993 15.7441C6.35411 15.8853 6.61887 15.9559 6.88355 15.9559C7.37778 15.9559 7.66024 15.7265 7.66024 15.4087C7.66024 15.1087 7.43077 14.9498 7.07772 14.8969L6.90124 14.8792C6.74237 14.8615 6.61887 14.8263 6.61887 14.7204C6.61887 14.5968 6.74237 14.5262 6.93654 14.5262C7.1484 14.5262 7.36018 14.6144 7.46606 14.6674L7.62494 14.3674ZM17.4738 14.1909C17.2619 14.1909 17.1207 14.2968 17.0325 14.4379V14.2262H16.6618V15.9206H17.0325V14.9675C17.0325 14.6851 17.156 14.5262 17.3854 14.5262C17.4561 14.5262 17.5444 14.5439 17.615 14.5615L17.7209 14.2086C17.6503 14.1909 17.5444 14.1909 17.4738 14.1909ZM12.7435 15.0734C12.7435 15.5852 13.0965 15.9559 13.6437 15.9559C13.8907 15.9559 14.0672 15.9029 14.2437 15.7618L14.0672 15.4617C13.926 15.5676 13.7849 15.6205 13.626 15.6205C13.3259 15.6205 13.1141 15.4087 13.1141 15.0734C13.1141 14.7557 13.3259 14.5438 13.626 14.5262C13.7849 14.5262 13.926 14.5791 14.0672 14.6851L14.2437 14.385C14.0672 14.2438 13.8907 14.1909 13.6437 14.1909C13.0965 14.1909 12.7435 14.5615 12.7435 15.0734ZM16.1677 15.0734V14.2262H15.797V14.4379C15.6734 14.2792 15.4969 14.1909 15.2675 14.1909C14.7909 14.1909 14.4203 14.5615 14.4203 15.0734C14.4203 15.5852 14.7909 15.9559 15.2675 15.9559C15.5145 15.9559 15.6911 15.8677 15.797 15.7088V15.9206H16.1677V15.0734ZM14.8085 15.0734C14.8085 14.7733 15.0027 14.5262 15.3204 14.5262C15.6204 14.5262 15.8323 14.7557 15.8323 15.0734C15.8323 15.3734 15.6204 15.6205 15.3204 15.6205C15.0027 15.6028 14.8085 15.3734 14.8085 15.0734ZM10.3784 14.1909C9.88416 14.1909 9.53111 14.5438 9.53111 15.0734C9.53111 15.6029 9.88408 15.9559 10.396 15.9559C10.6431 15.9559 10.8902 15.8853 11.0844 15.7265L10.9078 15.4617C10.7666 15.5676 10.5902 15.6382 10.4137 15.6382C10.1842 15.6382 9.95475 15.5323 9.90176 15.2322H11.155V15.091C11.1727 14.5438 10.855 14.1909 10.3784 14.1909ZM10.3783 14.5085C10.6077 14.5085 10.7666 14.6498 10.8019 14.9146H9.91937C9.95467 14.6851 10.1135 14.5085 10.3783 14.5085ZM19.574 15.0734V13.5555H19.2034V14.4379C19.0798 14.2792 18.9033 14.1909 18.6739 14.1909C18.1973 14.1909 17.8267 14.5615 17.8267 15.0734C17.8267 15.5852 18.1973 15.9559 18.6739 15.9559C18.921 15.9559 19.0975 15.8677 19.2034 15.7088V15.9206H19.574V15.0734ZM18.215 15.0734C18.215 14.7733 18.4091 14.5262 18.7268 14.5262C19.0269 14.5262 19.2387 14.7557 19.2387 15.0734C19.2387 15.3734 19.0269 15.6205 18.7268 15.6205C18.4091 15.6028 18.215 15.3734 18.215 15.0734ZM5.8245 15.0734V14.2262H5.45384V14.4379C5.33027 14.2792 5.15378 14.1909 4.92432 14.1909C4.44777 14.1909 4.07712 14.5615 4.07712 15.0734C4.07712 15.5852 4.44777 15.9559 4.92432 15.9559C5.17147 15.9559 5.34795 15.8677 5.45384 15.7088V15.9206H5.8245V15.0734ZM4.44777 15.0734C4.44777 14.7733 4.64194 14.5262 4.95961 14.5262C5.25967 14.5262 5.47153 14.7557 5.47153 15.0734C5.47153 15.3734 5.25967 15.6205 4.95961 15.6205C4.64194 15.6028 4.44777 15.3734 4.44777 15.0734Z" fill="black"/>
<path d="M7.50134 1.35904H13.0611V11.3491H7.50134V1.35904Z" fill="#FF5F00"/>
<path d="M7.85439 6.35409C7.85439 4.32434 8.80748 2.52398 10.2724 1.35904C9.19582 0.511839 7.83678 0 6.35417 0C2.84165 0 0 2.84165 0 6.35409C0 9.86653 2.84165 12.7082 6.35409 12.7082C7.8367 12.7082 9.19574 12.1963 10.2724 11.3491C8.80748 10.2018 7.85439 8.38384 7.85439 6.35409Z" fill="#EB001B"/>
<path d="M20.5625 6.35409C20.5625 9.86645 17.7209 12.7082 14.2084 12.7082C12.7258 12.7082 11.3668 12.1963 10.2901 11.3491C11.7727 10.1842 12.7082 8.38384 12.7082 6.35409C12.7082 4.32434 11.755 2.52398 10.2901 1.35904C11.3667 0.511839 12.7258 0 14.2084 0C17.7209 0 20.5625 2.85934 20.5625 6.35409Z" fill="#F79E1B"/>
</g>
<defs>
<clipPath id="clip0_34_30">
<rect width="20.5829" height="16" fill="white"/>
</clipPath>
</defs>
</svg>
