<svg width="17" height="17" viewBox="0 0 17 17" fill="none" xmlns="http://www.w3.org/2000/svg">
<path d="M7.83334 11.8333H9.16667V7.83334H7.83334V11.8333ZM8.5 6.5C8.68889 6.5 8.84734 6.436 8.97534 6.308C9.10334 6.18 9.16711 6.02178 9.16667 5.83334C9.16623 5.64489 9.10223 5.48667 8.97467 5.35867C8.84711 5.23067 8.68889 5.16667 8.5 5.16667C8.31111 5.16667 8.15289 5.23067 8.02534 5.35867C7.89778 5.48667 7.83378 5.64489 7.83334 5.83334C7.83289 6.02178 7.89689 6.18022 8.02534 6.30867C8.15378 6.43711 8.312 6.50089 8.5 6.5ZM8.5 15.1667C7.57778 15.1667 6.71111 14.9916 5.9 14.6413C5.08889 14.2911 4.38334 13.8162 3.78334 13.2167C3.18334 12.6171 2.70845 11.9116 2.35867 11.1C2.00889 10.2884 1.83378 9.42178 1.83334 8.5C1.83289 7.57822 2.008 6.71156 2.35867 5.9C2.70934 5.08845 3.18423 4.38289 3.78334 3.78334C4.38245 3.18378 5.088 2.70889 5.9 2.35867C6.712 2.00845 7.57867 1.83334 8.5 1.83334C9.42134 1.83334 10.288 2.00845 11.1 2.35867C11.912 2.70889 12.6176 3.18378 13.2167 3.78334C13.8158 4.38289 14.2909 5.08845 14.642 5.9C14.9931 6.71156 15.168 7.57822 15.1667 8.5C15.1653 9.42178 14.9902 10.2884 14.6413 11.1C14.2924 11.9116 13.8176 12.6171 13.2167 13.2167C12.6158 13.8162 11.9102 14.2913 11.1 14.642C10.2898 14.9927 9.42311 15.1676 8.5 15.1667ZM8.5 13.8333C9.98889 13.8333 11.25 13.3167 12.2833 12.2833C13.3167 11.25 13.8333 9.98889 13.8333 8.5C13.8333 7.01111 13.3167 5.75 12.2833 4.71667C11.25 3.68334 9.98889 3.16667 8.5 3.16667C7.01111 3.16667 5.75 3.68334 4.71667 4.71667C3.68334 5.75 3.16667 7.01111 3.16667 8.5C3.16667 9.98889 3.68334 11.25 4.71667 12.2833C5.75 13.3167 7.01111 13.8333 8.5 13.8333Z" fill="white"/>
</svg>
