<svg width="17" height="17" viewBox="0 0 17 17" fill="none" xmlns="http://www.w3.org/2000/svg">
<path d="M15.3 12.2556L9.83437 2.76375C9.69779 2.53121 9.50281 2.33839 9.26875 2.20442C9.03469 2.07044 8.76969 1.99996 8.5 1.99996C8.23031 1.99996 7.9653 2.07044 7.73124 2.20442C7.49719 2.33839 7.3022 2.53121 7.16562 2.76375L1.7 12.2556C1.56858 12.4806 1.49933 12.7364 1.49933 12.9969C1.49933 13.2574 1.56858 13.5132 1.7 13.7381C1.83483 13.9721 2.02948 14.1659 2.26397 14.2998C2.49847 14.4337 2.76436 14.5028 3.03437 14.5H13.9656C14.2354 14.5026 14.5011 14.4334 14.7353 14.2995C14.9696 14.1656 15.164 13.9719 15.2987 13.7381C15.4304 13.5133 15.4998 13.2576 15.5 12.997C15.5003 12.7365 15.4312 12.4807 15.3 12.2556ZM14.4331 13.2375C14.3855 13.3188 14.3171 13.3859 14.2349 13.4321C14.1528 13.4782 14.0598 13.5016 13.9656 13.5H3.03437C2.94017 13.5016 2.84723 13.4782 2.76508 13.4321C2.68293 13.3859 2.61452 13.3188 2.56687 13.2375C2.52371 13.1644 2.50095 13.0811 2.50095 12.9963C2.50095 12.9114 2.52371 12.8281 2.56687 12.755L8.0325 3.26313C8.08111 3.18224 8.14983 3.1153 8.23197 3.06883C8.31411 3.02236 8.40688 2.99794 8.50125 2.99794C8.59562 2.99794 8.68839 3.02236 8.77053 3.06883C8.85267 3.1153 8.92139 3.18224 8.97 3.26313L14.4356 12.755C14.4784 12.8283 14.5007 12.9117 14.5003 12.9966C14.4999 13.0815 14.4767 13.1647 14.4331 13.2375ZM8 9.5V7C8 6.86739 8.05268 6.74022 8.14645 6.64645C8.24021 6.55268 8.36739 6.5 8.5 6.5C8.63261 6.5 8.75978 6.55268 8.85355 6.64645C8.94732 6.74022 9 6.86739 9 7V9.5C9 9.63261 8.94732 9.75979 8.85355 9.85356C8.75978 9.94732 8.63261 10 8.5 10C8.36739 10 8.24021 9.94732 8.14645 9.85356C8.05268 9.75979 8 9.63261 8 9.5ZM9.25 11.75C9.25 11.8983 9.20601 12.0433 9.1236 12.1667C9.04119 12.29 8.92406 12.3861 8.78701 12.4429C8.64997 12.4997 8.49917 12.5145 8.35368 12.4856C8.2082 12.4567 8.07456 12.3852 7.96967 12.2803C7.86478 12.1754 7.79335 12.0418 7.76441 11.8963C7.73547 11.7508 7.75032 11.6 7.80709 11.463C7.86385 11.3259 7.95998 11.2088 8.08332 11.1264C8.20666 11.044 8.35166 11 8.5 11C8.69891 11 8.88968 11.079 9.03033 11.2197C9.17098 11.3603 9.25 11.5511 9.25 11.75Z" fill="white"/>
</svg>
